<?xml version="1.0" encoding="UTF-8" standalone="no"?>
<!-- Created with Inkscape (http://www.inkscape.org/) -->

<svg
   width="32"
   height="32"
   viewBox="0 0 8 8"
   version="1.1"
   id="svg1"
   xml:space="preserve"
   sodipodi:docname="t2linux-logo-small.svg"
   inkscape:version="1.3.2 (091e20ef0f, 2023-11-25, custom)"
   inkscape:export-filename="t2linux-logo-32.svg"
   inkscape:export-xdpi="96"
   inkscape:export-ydpi="96"
   xmlns:inkscape="http://www.inkscape.org/namespaces/inkscape"
   xmlns:sodipodi="http://sodipodi.sourceforge.net/DTD/sodipodi-0.dtd"
   xmlns:xlink="http://www.w3.org/1999/xlink"
   xmlns="http://www.w3.org/2000/svg"
   xmlns:svg="http://www.w3.org/2000/svg"><sodipodi:namedview
     id="namedview1"
     pagecolor="#ffffff"
     bordercolor="#000000"
     borderopacity="0.25"
     inkscape:showpageshadow="2"
     inkscape:pageopacity="0.0"
     inkscape:pagecheckerboard="0"
     inkscape:deskcolor="#d1d1d1"
     inkscape:document-units="px"
     showgrid="false"
     showguides="true"
     inkscape:zoom="16"
     inkscape:cx="15.28125"
     inkscape:cy="19.5625"
     inkscape:window-width="1856"
     inkscape:window-height="942"
     inkscape:window-x="914"
     inkscape:window-y="383"
     inkscape:window-maximized="0"
     inkscape:current-layer="layer3"><inkscape:page
       x="0"
       y="0"
       width="8"
       height="8"
       id="page5"
       margin="0"
       bleed="0"
       inkscape:export-filename="Page 2.png"
       inkscape:export-xdpi="201.92534"
       inkscape:export-ydpi="201.92534" /><inkscape:grid
       id="grid29"
       units="px"
       originx="0"
       originy="0"
       spacingx="0.24999999"
       spacingy="0.24999999"
       empcolor="#0099e5"
       empopacity="0.30196078"
       color="#0099e5"
       opacity="0.14901961"
       empspacing="5"
       dotted="false"
       gridanglex="30"
       gridanglez="30"
       visible="false" /></sodipodi:namedview><defs
     id="defs1"><linearGradient
       id="linearGradient29"
       inkscape:collect="always"><stop
         style="stop-color:#35364b;stop-opacity:1;"
         offset="0"
         id="stop29" /><stop
         style="stop-color:#15151d;stop-opacity:1;"
         offset="1"
         id="stop30" /></linearGradient><filter
       style="color-interpolation-filters:sRGB"
       inkscape:label="Noise Fill"
       id="filter42"
       x="0"
       y="0"
       width="1"
       height="1"><feTurbulence
         type="fractalNoise"
         baseFrequency="8 8"
         numOctaves="1"
         seed="127"
         result="turbulence"
         id="feTurbulence41" /><feComposite
         in="SourceGraphic"
         in2="turbulence"
         operator="out"
         result="composite1"
         id="feComposite41" /><feColorMatrix
         values="1 0 0 0 0 0 1 0 0 0 0 0 1 0 0 0 0 0 40 -22 "
         result="color"
         id="feColorMatrix41" /><feFlood
         flood-opacity="1"
         flood-color="rgb(215,216,223)"
         result="flood"
         id="feFlood41" /><feMerge
         result="merge"
         id="feMerge42"><feMergeNode
           in="flood"
           id="feMergeNode41" /><feMergeNode
           in="color"
           id="feMergeNode42" /></feMerge><feComposite
         in2="SourceGraphic"
         operator="in"
         result="fbSourceGraphic"
         id="feComposite42" /><feColorMatrix
         result="fbSourceGraphicAlpha"
         in="fbSourceGraphic"
         values="0 0 0 -1 0 0 0 0 -1 0 0 0 0 -1 0 0 0 0 1 0"
         id="feColorMatrix42" /><feTurbulence
         id="feTurbulence42"
         type="fractalNoise"
         baseFrequency="8 8"
         numOctaves="1"
         seed="128"
         result="turbulence" /><feComposite
         id="feComposite43"
         in="fbSourceGraphic"
         in2="turbulence"
         operator="out"
         result="composite1" /><feColorMatrix
         id="feColorMatrix43"
         values="1 0 0 0 0 0 1 0 0 0 0 0 1 0 0 0 0 0 40 -22 "
         result="color" /><feFlood
         id="feFlood43"
         flood-opacity="1"
         flood-color="rgb(215,216,223)"
         result="flood" /><feMerge
         id="feMerge43"
         result="merge"><feMergeNode
           id="feMergeNode43"
           in="flood" /><feMergeNode
           id="feMergeNode44"
           in="color" /></feMerge><feComposite
         id="feComposite44"
         in2="fbSourceGraphic"
         operator="in"
         result="composite2" /></filter><filter
       inkscape:label="Noise Fill"
       inkscape:menu="Image Effects"
       inkscape:menu-tooltip="Adds a small scale graininess"
       style="color-interpolation-filters:sRGB"
       id="filter59"
       x="-1.2235107"
       y="-1.1769412"
       width="3.4470215"
       height="3.3538823"><feTurbulence
         type="fractalNoise"
         numOctaves="3"
         baseFrequency="1"
         seed="0"
         result="result0"
         id="feTurbulence58" /><feColorMatrix
         result="result4"
         values="0"
         type="saturate"
         id="feColorMatrix58" /><feComposite
         in="SourceGraphic"
         in2="result4"
         operator="arithmetic"
         k1="1.25"
         k2="0.5"
         k3="0.5"
         result="result2"
         id="feComposite58"
         k4="0" /><feBlend
         result="result5"
         mode="normal"
         in="result2"
         in2="SourceGraphic"
         id="feBlend58" /><feComposite
         in="result5"
         in2="SourceGraphic"
         operator="in"
         result="fbSourceGraphic"
         id="feComposite59" /><feColorMatrix
         result="fbSourceGraphicAlpha"
         in="fbSourceGraphic"
         values="0 0 0 -1 0 0 0 0 -1 0 0 0 0 -1 0 0 0 0 1 0"
         id="feColorMatrix147" /><feTurbulence
         id="feTurbulence147"
         type="fractalNoise"
         baseFrequency="32 32"
         numOctaves="2"
         seed="64"
         result="turbulence" /><feComposite
         id="feComposite147"
         in="fbSourceGraphic"
         in2="turbulence"
         operator="in"
         result="composite1" /><feColorMatrix
         id="feColorMatrix148"
         values="1 0 0 0 0 0 1 0 0 0 0 0 1 0 0 0 0 0 22 -8 "
         result="color" /><feFlood
         id="feFlood148"
         flood-opacity="1"
         flood-color="rgb(215,216,223)"
         result="flood" /><feMerge
         id="feMerge148"
         result="merge"><feMergeNode
           id="feMergeNode148"
           in="flood" /><feMergeNode
           id="feMergeNode149"
           in="color" /></feMerge><feComposite
         id="feComposite149"
         in2="fbSourceGraphic"
         operator="in"
         result="fbSourceGraphic" /><feColorMatrix
         result="fbSourceGraphicAlpha"
         in="fbSourceGraphic"
         values="0 0 0 -1 0 0 0 0 -1 0 0 0 0 -1 0 0 0 0 1 0"
         id="feColorMatrix149" /><feTurbulence
         id="feTurbulence149"
         type="fractalNoise"
         baseFrequency="32 32"
         numOctaves="2"
         seed="64"
         result="turbulence" /><feComposite
         id="feComposite150"
         in="fbSourceGraphic"
         in2="turbulence"
         operator="in"
         result="composite1" /><feColorMatrix
         id="feColorMatrix150"
         values="1 0 0 0 0 0 1 0 0 0 0 0 1 0 0 0 0 0 22 -8 "
         result="color" /><feFlood
         id="feFlood150"
         flood-opacity="1"
         flood-color="rgb(215,216,223)"
         result="flood" /><feMerge
         id="feMerge150"
         result="merge"><feMergeNode
           id="feMergeNode150"
           in="flood" /><feMergeNode
           id="feMergeNode151"
           in="color" /></feMerge><feComposite
         id="feComposite151"
         in2="fbSourceGraphic"
         operator="in"
         result="composite2" /><feGaussianBlur
         stdDeviation="35.430831"
         id="feGaussianBlur151" /></filter><linearGradient
       inkscape:collect="always"
       xlink:href="#linearGradient29"
       id="linearGradient31"
       gradientUnits="userSpaceOnUse"
       gradientTransform="matrix(1.0564459,0,0,1.057573,-0.39174871,-0.46043853)"
       x1="110.06664"
       y1="0.76655036"
       x2="62.606579"
       y2="121.74385" /></defs><g
     inkscape:groupmode="layer"
     id="layer6"
     inkscape:label="32x32"
     style="display:inline"
     transform="matrix(0.06211997,0,0,0.06213436,0.02432185,0.0234007)"><g
       inkscape:groupmode="layer"
       id="layer5"
       inkscape:label="Background"
       style="display:inline;fill:none;fill-opacity:1;filter:url(#filter2)"><rect
         style="display:inline;fill:url(#linearGradient31);fill-opacity:1;stroke-width:0.263224;filter:url(#filter2)"
         id="rect29"
         width="128.78307"
         height="128.75323"
         x="-0.39153036"
         y="-0.37661448"
         inkscape:label="Gradient" /></g><g
       inkscape:groupmode="layer"
       id="layer3"
       inkscape:label="T2 Logo"
       style="display:inline"
       transform="matrix(1.1969073,0,0,1.1969073,-20.947548,-13.382505)"><path
         d="m 54.205175,51.88391 v -7.187181 h 32.96847 V 51.88391 H 74.895544 V 85.260742 H 66.5105 V 51.88391 Z m 36.37149,33.376832 V 79.10808 L 105.44106,66.394392 q 2.69519,-2.368502 4.46477,-4.383091 1.76957,-2.041813 1.76957,-4.900351 0,-2.912986 -1.76957,-4.628109 -1.76958,-1.742346 -4.76423,-1.742346 -3.2669,0 -5.145372,2.096261 -1.878468,2.096261 -1.878468,5.798748 h -7.70444 q 0,-4.410316 1.796795,-7.677216 1.824019,-3.294125 5.118144,-5.09092 3.294121,-1.824019 7.813341,-1.824019 4.16529,0 7.40497,1.579002 3.23968,1.551777 5.0637,4.383091 1.85124,2.831314 1.85124,6.669922 0,2.831313 -1.06174,5.172592 -1.06175,2.341279 -3.07633,4.546436 -1.98737,2.177934 -4.81868,4.600885 l -8.60284,7.486647 v 0.05445 h 17.75016 v 6.72437 z"
         id="text4"
         style="font-weight:bold;font-size:55.7551px;line-height:0;font-family:'Inter Display';-inkscape-font-specification:'Inter Display Bold';fill:#b7b7b5;stroke-width:0.294693"
         inkscape:label="T2 text"
         aria-label="T2" /><g
         inkscape:label="Penguin"
         inkscape:groupmode="layer"
         id="layer1"
         style="display:inline"
         transform="matrix(1.0831876,0,0,1.0831876,-5.39823,-5.6139204)"><path
           d="m 44.201338,52.985075 c 0.08955,0.04478 0.161182,0.152228 0.268636,0.152228 0.0985,0 0.250727,-0.03583 0.259682,-0.134319 0.01791,-0.125363 -0.170136,-0.205954 -0.286545,-0.259682 -0.152228,-0.06269 -0.349228,-0.08955 -0.4925,-0.0089 -0.03582,0.01791 -0.07164,0.06269 -0.05372,0.0985 0.02686,0.116409 0.205954,0.0985 0.304455,0.152227 z m -1.961046,0.152228 c 0.107454,0 0.179091,-0.107454 0.268635,-0.152228 0.0985,-0.05372 0.277593,-0.03583 0.313411,-0.143272 0.01791,-0.03582 -0.01792,-0.08059 -0.05372,-0.0985 -0.143272,-0.08059 -0.340272,-0.05372 -0.4925,0.0089 -0.116409,0.05372 -0.304454,0.134319 -0.286544,0.259683 0.0089,0.08955 0.161181,0.134318 0.250727,0.125363 z M 62.0388,78.102586 c -0.322364,-0.358181 -0.474591,-1.03873 -0.644727,-1.764045 -0.161182,-0.725321 -0.34923,-1.504366 -0.940229,-2.005821 -0.116407,-0.0985 -0.232816,-0.188045 -0.358181,-0.259682 -0.116411,-0.07164 -0.241771,-0.134319 -0.367136,-0.179091 0.823819,-2.444591 0.501455,-4.88023 -0.33132,-7.083048 -1.020819,-2.69532 -2.802773,-5.050365 -4.163864,-6.662184 -1.531228,-1.925229 -3.017683,-3.751957 -2.990819,-6.447275 0.04478,-4.110139 0.456681,-11.74837 -6.78755,-11.757325 -9.169458,-0.01792 -6.877094,9.259005 -6.975593,12.106551 -0.152228,2.095366 -0.573091,3.743002 -2.014774,5.793594 -1.69241,2.014774 -4.07432,5.265275 -5.202592,8.659049 -0.537274,1.602865 -0.788001,3.232592 -0.555183,4.772774 -0.582046,0.519365 -1.020818,1.316319 -1.486455,1.808819 -0.376092,0.385046 -0.922319,0.528318 -1.522273,0.743226 -0.599956,0.21491 -1.253637,0.537274 -1.656593,1.298411 -0.188045,0.349229 -0.250726,0.72532 -0.250726,1.110362 0,0.34923 0.05372,0.707411 0.107454,1.05664 0.107455,0.725316 0.223865,1.405867 0.07163,1.862547 -0.465638,1.289455 -0.528319,2.184908 -0.197,2.838592 0.340272,0.653682 1.020818,0.940228 1.799864,1.10141 1.549137,0.322364 3.653456,0.241772 5.310047,1.119318 1.773001,0.931275 3.572865,1.26259 5.005593,0.931275 1.038728,-0.232819 1.88941,-0.859637 2.319228,-1.808821 1.119319,-0.0089 2.355047,-0.483546 4.325047,-0.591 1.334228,-0.107455 3.008729,0.47459 4.933958,0.367135 0.05372,0.205957 0.125363,0.411912 0.223863,0.599956 v 0.0089 c 0.743229,1.495409 2.131184,2.175959 3.608684,2.059548 1.486455,-0.11641 3.053502,-0.985001 4.325047,-2.498321 1.217818,-1.468543 3.223637,-2.077454 4.557865,-2.883363 0.662643,-0.402927 1.199916,-0.904379 1.244688,-1.638654 0.03582,-0.734274 -0.394001,-1.549138 -1.387955,-2.6595 z M 44.46102,49.761438 c 0.877546,-1.987911 3.062456,-1.952092 3.940001,-0.03582 0.582045,1.271545 0.322364,2.766956 -0.385046,3.617637 -0.143271,-0.07163 -0.528317,-0.232818 -1.128272,-0.438772 0.0985,-0.107455 0.277591,-0.241773 0.349227,-0.411909 0.429818,-1.056638 -0.01792,-2.417728 -0.814865,-2.444593 -0.653681,-0.04477 -1.244682,0.967091 -1.056635,2.059547 -0.367137,-0.179091 -0.841729,-0.31341 -1.164092,-0.394 -0.08955,-0.617864 -0.02686,-1.307364 0.259682,-1.95209 z m -3.644502,-1.029773 c 0.904409,0 1.862547,1.271545 1.710319,2.999773 -0.313409,0.08955 -0.635773,0.223864 -0.913364,0.41191 0.107454,-0.796955 -0.2955,-1.799864 -0.859637,-1.755092 -0.752182,0.06269 -0.877545,1.898364 -0.161182,2.516229 0.08954,0.07163 0.170137,-0.01791 -0.528318,0.4925 -1.396909,-1.307364 -0.940228,-4.66532 0.752182,-4.66532 z m -1.217819,5.43541 c 0.555182,-0.411909 1.217819,-0.895454 1.262592,-0.940226 0.420864,-0.394001 1.208864,-1.271547 2.49832,-1.271547 0.635772,0 1.396909,0.205954 2.319227,0.796955 0.564137,0.367137 1.011865,0.393999 2.023729,0.832772 0.752182,0.31341 1.226773,0.868593 0.940226,1.629729 -0.232817,0.635773 -0.985,1.289455 -2.032681,1.620773 -0.993955,0.322365 -1.773001,1.432728 -3.420638,1.334229 -0.349228,-0.01791 -0.626819,-0.08955 -0.859637,-0.188047 -0.716364,-0.313409 -1.092454,-0.931272 -1.79091,-1.343182 -0.770091,-0.429818 -1.182001,-0.931273 -1.316319,-1.370045 -0.125363,-0.438773 0,-0.80591 0.376091,-1.101411 z M 39.8942,84.075272 c -0.241773,3.143045 -3.931047,3.080363 -6.742776,1.611818 -2.67741,-1.414819 -6.142821,-0.582045 -6.850231,-1.961048 -0.214909,-0.420862 -0.214909,-1.137227 0.232819,-2.364001 v -0.01791 c 0.214909,-0.680547 0.05372,-1.432732 -0.05372,-2.140139 -0.107454,-0.698453 -0.16118,-1.343182 0.08059,-1.79091 0.313409,-0.599955 0.761137,-0.814864 1.325274,-1.011863 0.922318,-0.33132 1.056636,-0.304458 1.75509,-0.886502 0.492501,-0.510409 0.850683,-1.155136 1.280501,-1.611819 0.456682,-0.4925 0.895456,-0.725318 1.584956,-0.617863 0.725318,0.107455 1.352136,0.608908 1.961046,1.432727 l 1.755091,3.187821 c 0.850682,1.781956 3.859411,4.334002 3.671366,6.169685 z m -0.125364,-2.319229 c -0.367137,-0.591001 -0.859637,-1.217819 -1.289455,-1.755093 0.635773,0 1.271546,-0.197002 1.495409,-0.796957 0.205955,-0.55518 0,-1.334228 -0.662636,-2.229681 -1.208864,-1.629727 -3.429593,-2.910229 -3.429593,-2.910229 -1.208864,-0.752182 -1.889409,-1.674501 -2.202819,-2.67741 -0.313409,-1.002909 -0.268636,-2.086409 -0.02686,-3.152001 0.465637,-2.050591 1.665546,-4.047455 2.435637,-5.301093 0.205955,-0.152227 0.07163,0.286547 -0.779046,1.862548 -0.761135,1.44168 -2.18491,4.772773 -0.232818,7.378546 0.05372,-1.85359 0.492501,-3.743001 1.235729,-5.507048 1.074545,-2.453544 3.340046,-6.706956 3.519136,-10.091775 0.0985,0.07163 0.411911,0.286545 0.555183,0.367136 0.411909,0.241773 0.725318,0.599955 1.128273,0.922318 1.110364,0.895455 2.552047,0.82382 3.796728,0.107455 0.555183,-0.31341 1.002912,-0.671592 1.423775,-0.805909 0.8865,-0.277592 1.59391,-0.770092 1.996864,-1.343182 0.6895,2.722182 2.301319,6.653229 3.331093,8.569503 0.546228,1.020819 1.638682,3.178864 2.113274,5.784638 0.295499,-0.0089 0.626818,0.03583 0.976045,0.125364 1.235728,-3.196774 -1.047683,-6.644275 -2.08641,-7.602412 -0.420864,-0.411909 -0.438772,-0.591 -0.232818,-0.582046 1.128274,1.002909 2.614728,3.017683 3.152002,5.283184 0.250726,1.038727 0.295499,2.122229 0.03582,3.196774 1.468547,0.608909 3.214685,1.602864 2.749045,3.116184 -0.196999,-0.0089 -0.286546,0 -0.376091,0 0.286544,-0.90441 -0.349227,-1.576002 -2.041635,-2.337139 -1.755093,-0.770091 -3.223639,-0.770091 -3.429594,1.119319 -1.083499,0.376092 -1.638683,1.316319 -1.916273,2.444592 -0.250728,1.00291 -0.322364,2.211776 -0.394,3.572864 -0.04477,0.689503 -0.322364,1.61182 -0.60891,2.596823 -2.87441,2.050591 -6.86814,2.946046 -10.23505,0.644727 z M 62.817845,80.72627 c -0.08059,1.504364 -3.689273,1.781955 -5.659274,4.163866 -1.182001,1.405862 -2.632637,2.184909 -3.904183,2.283409 -1.271546,0.0985 -2.372956,-0.429818 -3.017684,-1.728229 -0.420864,-0.993954 -0.214909,-2.068499 0.0985,-3.250499 0.33132,-1.271549 0.823819,-2.578913 0.886501,-3.635551 0.07164,-1.361089 0.152227,-2.552045 0.376092,-3.465409 0.232818,-0.922319 0.591,-1.540183 1.226773,-1.88941 0.02686,-0.01791 0.06269,-0.02686 0.08955,-0.04477 0.07164,1.182001 0.653683,2.381911 1.683456,2.641593 1.128273,0.295498 2.749046,-0.671592 3.438546,-1.459592 0.805909,-0.02686 1.405864,-0.08059 2.023729,0.456682 0.886499,0.761137 0.635773,2.713229 1.531227,3.725092 0.949184,1.038729 1.253638,1.746139 1.226772,2.202821 z M 39.947927,55.259531 c 0.17909,0.170136 0.420863,0.402954 0.716364,0.635772 0.591,0.465638 1.414818,0.949183 2.444592,0.949183 1.038728,0 2.014774,-0.528319 2.847546,-0.967092 0.438774,-0.232818 0.976047,-0.626818 1.325275,-0.931273 0.349226,-0.304454 0.528317,-0.564136 0.27759,-0.591 -0.250727,-0.02686 -0.232819,0.232819 -0.537273,0.456683 -0.394001,0.286545 -0.868591,0.662636 -1.244683,0.877545 -0.662637,0.376092 -1.746136,0.913365 -2.67741,0.913365 -0.931274,0 -1.6745,-0.429818 -2.229682,-0.868593 -0.277592,-0.223864 -0.510411,-0.447727 -0.689501,-0.617863 -0.134318,-0.125363 -0.170136,-0.411909 -0.385046,-0.438773 -0.125364,-0.0089 -0.161182,0.331319 0.152228,0.582046 z"
           id="path1"
           style="display:inline;fill:#383837;fill-opacity:1;stroke-width:0.0895454"
           inkscape:label="Outline" /><g
           id="g20"
           inkscape:label="Fill"
           transform="matrix(1.0139943,0,0,1.0139943,1.678978,3.1642373)"
           style="fill:#b7b7b5;fill-opacity:1"><path
             style="fill:#b7b7b5;fill-opacity:1;stroke-width:0.224474"
             d="m 127.14698,310.7888 c -3.15197,-0.531 -6.20615,-1.55854 -9.47842,-3.18889 -3.91123,-1.94869 -7.49159,-2.85681 -14.41036,-3.65505 -5.062323,-0.58405 -6.370858,-0.80729 -8.173479,-1.39439 -1.778203,-0.57915 -3.277399,-1.95274 -3.515283,-3.22078 -0.272485,-1.45247 0.07197,-4.37885 0.789565,-6.70781 0.811465,-2.63363 0.898971,-4.91731 0.321243,-8.38366 -0.200403,-1.20241 -0.371343,-3.09533 -0.379865,-4.20648 -0.01348,-1.75692 0.06067,-2.16657 0.5688,-3.14264 1.081114,-2.0767 2.307232,-2.91161 6.310867,-4.29729 3.724532,-1.28908 4.649902,-2.02042 7.822402,-6.18223 2.1473,-2.8169 3.0832,-3.756 4.39918,-4.41424 1.19931,-0.59987 2.12905,-0.72675 3.47261,-0.47388 1.9756,0.37183 3.50703,1.26695 5.33177,3.11643 1.55591,1.577 1.96278,2.21677 5.36621,8.43788 4.48305,8.19454 4.77677,8.65539 8.6539,13.57797 5.78621,7.34642 7.42493,10.03509 7.99462,13.11686 0.51013,2.75952 -0.82134,6.60245 -2.95095,8.51715 -2.71365,2.4398 -7.10661,3.34611 -12.12281,2.50105 z"
             id="path15"
             transform="scale(0.26458333)" /><path
             style="fill:#b7b7b5;fill-opacity:1;stroke-width:0.224474"
             d="m 189.11964,312.90213 c -3.12872,-0.5333 -6.30341,-2.96043 -7.75763,-5.93091 -1.12439,-2.29674 -1.3666,-4.30348 -0.90189,-7.47231 0.33555,-2.28807 0.68507,-3.67625 2.95162,-11.7228 0.92412,-3.28075 1.31428,-5.87634 1.66332,-11.06546 0.57342,-8.52487 2.00192,-13.01598 4.74428,-14.91578 l 0.97071,-0.67246 0.38855,1.91922 c 0.69974,3.45624 2.46675,6.19513 4.72184,7.31889 0.96437,0.48056 1.47657,0.58001 2.98716,0.58001 1.0059,0 2.36978,-0.16003 3.04245,-0.35698 1.93123,-0.56546 4.9363,-2.25763 6.83492,-3.8488 l 1.74659,-1.46375 2.08778,0.1092 c 3.19915,0.16734 5.11512,1.29423 6.36457,3.74333 0.24248,0.47532 0.85426,2.51803 1.35949,4.53937 1.11232,4.45018 1.80062,5.99611 3.66935,8.24145 3.32813,3.99886 4.31744,6.48764 3.37138,8.48131 -0.67371,1.41974 -2.22337,2.46209 -8.13298,5.47048 -7.10644,3.61767 -9.04942,4.97019 -12.67402,8.82246 -3.17431,3.3737 -5.45098,5.16714 -8.31041,6.54648 -3.21476,1.55076 -6.41655,2.13907 -9.12708,1.67705 z"
             id="path16"
             transform="scale(0.26458333)" /><path
             style="fill:#b7b7b5;fill-opacity:1;stroke-width:0.224474"
             d="m 155.11177,297.74089 c -3.90208,-0.57786 -6.76252,-1.48079 -9.98911,-3.15317 -2.9126,-1.50964 -2.85945,-1.46806 -3.97223,-3.10778 -0.50271,-0.74077 -1.5358,-2.15496 -2.29574,-3.14264 l -1.38173,-1.7958 1.1846,-0.1742 c 1.71876,-0.25275 3.02778,-0.9638 3.7301,-2.02615 0.5286,-0.79957 0.6025,-1.13349 0.6025,-2.72261 0,-1.62286 -0.0857,-1.99066 -0.82355,-3.53585 -2.06998,-4.33473 -6.09034,-8.306 -13.09386,-12.93398 -6.38377,-4.21844 -8.77435,-7.14811 -9.99825,-12.25286 -1.4418,-6.01362 0.5093,-14.27987 5.56925,-23.59531 1.89739,-3.49313 3.52381,-6.17481 3.60452,-5.94321 0.0404,0.11587 -1.07714,2.51063 -2.48339,5.32169 -3.87929,7.75464 -4.99143,11.62082 -4.95716,17.23262 0.0209,3.41698 0.42698,5.50799 1.54379,7.94872 0.66939,1.46292 1.86762,3.38724 2.10917,3.38724 0.092,0 0.23508,-1.11559 0.31789,-2.4791 0.27361,-4.50497 1.64467,-10.67469 3.43351,-15.45075 0.4434,-1.18386 2.16696,-5.1342 3.83011,-8.77853 7.13795,-15.64077 9.27703,-22.06802 10.21903,-30.70486 0.053,-0.48604 0.1258,-0.46173 1.61453,0.53919 0.85746,0.5765 2.37248,1.75112 3.36673,2.61028 2.14092,1.85004 3.86607,2.77244 6.04723,3.23331 3.0513,0.64474 6.67575,-0.14904 10.03022,-2.19669 3.14334,-1.91877 3.67636,-2.19934 5.65033,-2.97429 2.22063,-0.87178 3.96545,-1.97777 5.37385,-3.4063 l 1.00956,-1.02399 0.40174,1.52703 c 0.76792,2.9189 3.26076,10.16138 5.13583,14.92122 2.3973,6.08551 4.17858,10.05174 7.29308,16.23885 3.56806,7.08812 5.58916,12.41601 6.85291,18.06514 l 0.52669,2.35437 1.75434,0.29262 c 0.96489,0.16094 1.87867,0.24492 2.03063,0.1866 0.15196,-0.0583 0.50987,-1.04743 0.79536,-2.19804 0.65028,-2.62091 0.70404,-7.39875 0.11297,-10.0418 -1.37382,-6.14327 -4.2872,-11.53862 -8.9498,-16.57438 -1.24401,-1.34357 -1.2452,-2.09801 -0.001,-0.91706 1.40555,1.33457 4.14591,4.73657 5.57584,6.92209 2.90412,4.43869 5.1058,9.79918 5.8084,14.14188 0.41536,2.56727 0.43318,6.02833 0.0425,8.25472 l -0.2865,1.63272 2.04699,0.96967 c 2.65073,1.25567 4.37529,2.36903 5.89324,3.80465 1.58574,1.49972 2.30162,2.74416 2.4597,4.27578 0.17384,1.6844 -0.0291,2.38753 -0.68922,2.38753 -0.48935,0 -0.5174,-0.0704 -0.42471,-1.06626 0.14088,-1.51348 -0.77835,-3.19605 -2.50687,-4.58857 -1.57702,-1.27048 -5.58829,-3.28621 -8.20857,-4.12494 -2.62157,-0.83914 -5.46825,-0.89465 -7.00754,-0.13664 -1.3741,0.67666 -2.30006,1.95964 -2.79169,3.8681 -0.38523,1.49545 -0.41423,1.53447 -1.52109,2.04673 -1.46582,0.67841 -3.42168,2.64557 -4.31624,4.3412 -1.72106,3.26227 -2.43076,6.95385 -2.9899,15.55237 -0.1993,3.06491 -0.38669,4.22979 -1.15555,7.18318 -0.50472,1.93877 -0.9688,3.7505 -1.03129,4.02606 -0.2138,0.94286 -5.88856,4.14491 -10.16416,5.73525 -3.6257,1.34861 -7.01937,1.9955 -10.88701,2.07525 -1.85191,0.0382 -3.67016,0.0246 -4.04054,-0.0303 z"
             id="path17"
             transform="scale(0.26458333)" /><path
             style="fill:#b7b7b5;fill-opacity:1;stroke-width:0.224474"
             d="m 152.75479,204.60001 c -1.43075,-0.39893 -2.88507,-1.323 -4.93843,-3.13784 -0.8025,-0.70928 -2.26719,-1.81769 -3.25488,-2.46313 -1.99839,-1.30592 -3.78705,-3.089 -4.27845,-4.26509 -0.46474,-1.11226 -0.40603,-2.50925 0.14275,-3.3972 0.25631,-0.41472 1.54337,-1.53779 2.86014,-2.49571 1.31676,-0.95792 3.05156,-2.33827 3.8551,-3.06745 2.92174,-2.65132 5.26809,-3.7249 8.14098,-3.7249 2.68527,0 4.91824,0.73701 8.47203,2.79627 0.92596,0.53655 2.7442,1.3513 4.04054,1.81056 3.33969,1.18318 4.93416,1.94027 5.9327,2.817 2.06763,1.8154 1.94667,4.34433 -0.32568,6.80955 -1.29059,1.40012 -2.87778,2.40434 -5.49889,3.47917 -1.22539,0.5025 -2.7359,1.23488 -3.35668,1.62753 -2.504,1.58378 -4.11932,2.45419 -5.3969,2.90808 -1.76826,0.62823 -4.72563,0.76844 -6.39433,0.30316 z m 6.29309,-5.25742 c 3.95397,-1.3247 8.64101,-4.03389 11.21298,-6.48129 1.51507,-1.4417 1.72222,-2.05811 0.69164,-2.05811 -0.47233,0 -0.79104,0.18665 -1.12888,0.6611 -0.66341,0.93167 -4.90962,3.91146 -7.2602,5.09486 -1.08694,0.54722 -2.90518,1.31543 -4.04053,1.70713 -1.77223,0.61142 -2.36597,0.71049 -4.19678,0.70021 -2.39059,-0.0134 -4.11874,-0.52575 -6.42764,-1.90558 -1.10225,-0.65873 -4.35242,-3.62973 -5.19776,-4.75132 -0.61636,-0.81778 -1.34394,-0.1983 -0.95833,0.81596 0.36748,0.96654 3.73383,3.90376 5.98843,5.22505 1.04227,0.6108 3.06364,1.36636 4.46053,1.66727 1.63015,0.35116 4.69326,0.0495 6.85654,-0.67528 z m -6.64503,-13.49422 c 1.77842,-0.78668 0.94392,-1.71339 -1.01453,-1.12663 -0.95428,0.28591 -1.43339,0.76704 -1.24714,1.2524 0.18065,0.47077 1.01841,0.42418 2.26167,-0.12577 z m 8.13454,0.10993 c 0.0798,-0.20787 -0.0615,-0.55324 -0.34022,-0.832 -0.62852,-0.62852 -2.78447,-0.71595 -2.90439,-0.11778 -0.0525,0.26169 0.22258,0.51545 0.89184,0.82287 1.20233,0.55227 2.16953,0.60444 2.35277,0.12691 z"
             id="path18"
             transform="scale(0.26458333)" /><path
             style="fill:#b7b7b5;fill-opacity:1;stroke-width:0.224474"
             d="m 170.5561,186.04366 -1.61571,-0.6729 0.53637,-0.81925 c 1.74955,-2.67224 1.0781,-7.89007 -1.21032,-9.4054 -2.61709,-1.73298 -5.63478,1.27301 -5.63478,5.61294 0,0.952 -0.0786,1.29966 -0.28059,1.24081 -0.15433,-0.045 -1.05222,-0.32184 -1.99532,-0.61528 l -1.71472,-0.53352 -0.11272,-1.00002 c -0.273,-2.42207 0.52606,-5.46745 2.05546,-7.83372 1.55227,-2.40167 3.75156,-3.66156 6.3917,-3.66156 5.16908,0 9.24476,6.69244 8.0173,13.16478 -0.44054,2.32295 -1.77457,5.08583 -2.49213,5.1614 -0.18085,0.019 -1.05589,-0.26818 -1.94454,-0.63828 z"
             id="path19"
             transform="scale(0.26458333)" /><path
             style="fill:#b7b7b5;fill-opacity:1;stroke-width:0.224474"
             d="m 142.37577,186.25759 c -1.62214,-2.1306 -2.28203,-4.61227 -2.13388,-8.02496 0.15455,-3.55991 1.17715,-5.99983 3.09771,-7.39107 1.08282,-0.78439 2.31332,-1.03078 3.52221,-0.70526 1.03481,0.27865 2.7778,1.73235 3.55696,2.96662 0.80445,1.27433 1.61875,3.93894 1.67054,5.46642 0.0701,2.06637 0.023,2.3606 -0.40077,2.50414 -0.21606,0.0732 -0.92315,0.36747 -1.57132,0.65396 l -1.17849,0.52089 v -1.21377 c 0,-1.52522 -0.71999,-3.48738 -1.60404,-4.37143 -1.24275,-1.24275 -3.0574,-0.69923 -3.74117,1.12055 -0.75022,1.99661 -0.45308,5.10051 0.65562,6.84876 0.35698,0.56289 0.64905,1.05701 0.64905,1.09805 0,0.0882 -1.74485,1.25664 -1.87658,1.25664 -0.0497,0 -0.34035,-0.32829 -0.64584,-0.72954 z"
             id="path20"
             transform="scale(0.26458333)" /></g></g></g></g></svg>
